<svg xmlns="http://www.w3.org/2000/svg" width="435" height="632" viewBox="0 0 435 632">
  <defs>
    <style>
      .cls-1 {
        fill: #212428;
        fill-rule: evenodd;
      }
    </style>
  </defs>
  <path id="長方形_1" data-name="長方形 1" class="cls-1" d="M18.033,297.651l364.356-279.7a19.146,19.146,0,0,1,26.84,3.522l12.824,16.693A19.13,19.13,0,0,1,418.53,65L54.174,344.7a19.146,19.146,0,0,1-26.84-3.522L14.51,324.481A19.13,19.13,0,0,1,18.033,297.651Z"/>
  <path id="長方形_1-2" data-name="長方形 1" class="cls-1" d="M53.6,288.542L418.2,567.979a19.131,19.131,0,0,1,3.544,26.829l-12.812,16.705a19.148,19.148,0,0,1-26.84,3.542L17.491,335.618a19.131,19.131,0,0,1-3.544-26.829l12.812-16.7A19.148,19.148,0,0,1,53.6,288.542Z"/>
</svg>
